PathFileType	4	(X/Y/Z)	C:/Users/beibeiliu/ov580/test_trc/User3\sequence.34_training_dense_right.trc
DataRate	CameraRate	NumFrames	NumMarkers	Units	OrigDataRate	OrigDataStartFrame	OrigNumFrames
120	120	24	19	mm	120	157	250
Frame#	Time	ThumbCMC			ThumbMCP			ThumbIP			ThumbTip			IndexMCP			IndexPIP			IndexTip			MiddleMCP			MiddlePIP			MiddleTip			RingMCP			RingPIP			RingTip			PinkyMCP			PinkyPIP			PinkyTip			BackHand1			BackHand2			BackHand3	
		X0	Y0	Z0	X1	Y1	Z1	X2	Y2	Z2	X3	Y3	Z3	X4	Y4	Z4	X5	Y5	Z5	X6	Y6	Z6	X7	Y7	Z7	X8	Y8	Z8	X9	Y9	Z9	X10	Y10	Z10	X11	Y11	Z11	X12	Y12	Z12	X13	Y13	Z13	X14	Y14	Z14	X15	Y15	Z15	X16	Y16	Z16	X17	Y17	Z17	X18	Y18	Z18	
156	1.3	149.5	2.93037	22.6376	125.409	22.3558	2.79744	97.7014	20.622	-15.5303	77.4508	4.11432	-18.0449	142.624	-17.8113	-52.4754	134.66	-12.596	-79.682	126.764	-6.42152	-98.4894	123.945	-34.1662	-54.5392	119.374	-26.438	-77.8892	102.783	-18.7902	-108.973	109.417	-39.5121	-45.2042	98.3515	-32.6718	-68.1627	85.7948	-22.5402	-88.4394	87.3707	-39.6281	-22.6006	75.8567	-15.3979	-28.5961	79.085	2.29721	-0.957755	126.532	-54.4699	3.00343	134.19	-56.3924	34.9293	156.446	-38.0056	13.1077	
157	1.30833	150.589	5.01086	24.5019	123.252	21.7691	-2.42715	95.3282	19.294	-19.2004	77.8638	-1.35588	-15.8042	141.456	-18.2812	-48.9807	137.761	-11.4395	-77.6425	127.566	-6.63377	-101.892	125.285	-32.3237	-56.7157	114.525	-27.128	-81.3488	102.856	-19.5994	-108.931	105.446	-40.7442	-41.5462	98.8984	-34.1067	-64.3565	83.7892	-26.3606	-86.3732	87.2892	-40.5657	-22.7419	75.1175	-16.5268	-29.4469	76.6892	0.0781131	-4.90164	128.631	-55.0645	8.15206	137.463	-57.5066	35.2418	158.388	-33.8583	12.5536	
158	1.31667	148.48	4.24508	18.9686	124.783	24.3503	-0.391586	95.4942	18.7511	-17.4601	74.8331	-1.7203	-16.5401	140.435	-19.825	-52.2359	138.002	-12.6537	-75.6851	126.999	-11.1206	-100.732	123.248	-34.3906	-53.1212	115.415	-28.4362	-78.9205	102.789	-21.2923	-107.084	106.717	-39.6196	-41.6792	98.3704	-33.069	-63.23	86.1893	-23.0195	-89.4415	86.7529	-40.9361	-22.6664	75.3268	-14.4295	-28.7842	75.1304	-1.2843	-2.67188	126.414	-54.6678	3.23566	135.488	-54.5462	32.9005	157.879	-33.172	11.0547	
159	1.325	151.067	4.7549	21.9511	124.236	19.8791	-0.623757	98.2064	19.47	-15.3819	75.9144	-2.40667	-15.3855	141.332	-18.7131	-53.1932	136.223	-14.8327	-74.6582	129.811	-10.4621	-101.752	124.264	-34.1674	-51.7264	112.802	-28.8556	-82.6971	104.646	-22.0109	-105.683	107.932	-38.2006	-40.4935	97.2	-33.9253	-65.6637	84.6609	-27.3171	-86.1706	90.0131	-39.4261	-20.8858	72.3853	-15.5165	-27.814	80.3958	-0.0828957	-4.14898	125.518	-55.4053	8.15707	131.384	-57.6166	33.7961	153.988	-38.0723	10.2949	
160	1.33333	147.498	1.51392	19.1676	124.405	25.0256	-1.06802	96.125	23.2304	-18.0428	74.2375	-0.789094	-16.5616	142.543	-18.3826	-52.3492	136.135	-14.8521	-75.5666	128.754	-12.1941	-103.71	125.129	-32.9153	-56.047	117.013	-27.456	-82.4084	106.186	-23.2144	-105.839	107.45	-39.5132	-44.4278	98.7876	-34.1736	-65.5703	84.4722	-27.5567	-88.6255	87.0788	-39.8231	-22.7566	75.0864	-17.8273	-29.0096	77.5238	-2.26663	-4.02291	128.518	-54.7664	8.29844	132.462	-58.3549	32.9121	157.68	-34.5632	12.1953	
161	1.34167	150.066	3.70225	22.4436	123.453	23.4825	-1.57648	94.334	19.2458	-19.4509	76.3117	2.30871	-16.236	143.358	-19.3902	-50.7202	136.001	-16.2131	-76.0332	129.765	-11.6452	-103.299	126.777	-33.5086	-55.399	115.694	-31.9405	-77.066	110.549	-23.6843	-106.951	107.047	-40.8893	-41.4251	97.398	-36.7323	-65.1464	86.0928	-30.872	-84.6807	88.1902	-39.1168	-22.4807	71.5847	-18.6654	-26.2819	76.8536	-2.52063	-1.40027	130.328	-53.4391	4.78805	137.324	-57.4954	37.4177	159.515	-35.5662	13.468	
162	1.35	150.242	2.5936	19.9968	125.13	24.091	-2.18842	97.8362	19.719	-17.4784	77.6078	2.04954	-15.754	142.538	-20.084	-48.9603	137.153	-17.2881	-75.2725	135.329	-11.0523	-98.591	125.47	-35.3558	-54.7302	119.736	-30.8992	-79.0171	110.559	-24.7656	-110.871	108.495	-39.9088	-42.6284	99.76	-36.8832	-64.3705	85.0859	-28.8838	-88.5761	86.6214	-42.7872	-20.0056	73.4732	-17.2075	-27.113	80.6957	-1.79725	-1.14164	126.077	-55.7673	4.6812	135.079	-59.5583	35.7218	158.22	-33.5915	9.85759	
163	1.35833	152.512	4.46392	22.523	125.426	21.5704	-3.10397	97.126	16.8138	-17.4986	77.4297	1.02634	-16.1187	145.688	-17.8993	-54.8672	139.832	-15.5924	-76.8423	133.492	-12.853	-103.638	129.278	-34.5386	-53.6458	118.631	-32.7305	-79.0185	113.947	-23.9484	-107.085	107.447	-42.3379	-42.4697	96.3195	-39.3266	-64.682	84.676	-32.8602	-85.3705	88.1672	-40.3948	-22.2624	75.3038	-16.9636	-27.7502	81.0243	0.688781	-0.934929	130.249	-55.3342	5.63898	136.254	-59.6144	33.1052	158.285	-34.7051	14.4742	
164	1.36667	150.748	1.29998	22.1775	126.757	22.1013	-1.42025	97.7274	17.3182	-19.2117	80.2611	2.5997	-15.765	144.078	-21.6052	-51.7599	142.212	-14.0843	-79.9687	137.047	-10.9498	-100.292	129.002	-33.9006	-55.8192	121.982	-29.4354	-80.6455	113.714	-24.8479	-110.727	108.227	-41.9463	-43.288	97.3363	-38.2189	-65.0829	85.3783	-31.6358	-89.003	88.4643	-41.6217	-22.023	71.0915	-18.8	-25.7639	80.8108	0.617202	0.613213	128.782	-57.9904	5.85012	135.685	-60.2041	37.6926	158.066	-35.7096	14.9534	
165	1.375	152.139	-0.218021	23.935	127.66	21.6659	-1.2248	97.8566	18.4186	-21.2729	80.2396	-0.968992	-16.3507	146.859	-19.3853	-50.6854	142.741	-15.1804	-79.7278	138.891	-10.7665	-100.262	126.27	-37.3678	-52.153	120.247	-30.8488	-82.1768	114.372	-26.0291	-110.23	106.918	-43.757	-42.1516	101.567	-37.0499	-63.82	85.3245	-32.0062	-88.4754	90.0579	-37.2907	-25.0692	75.7415	-17.4342	-27.67	79.5816	0.0803527	0.920458	131.287	-56.9648	8.34462	133.751	-60.3551	34.9497	157.782	-36.8776	13.7657	
166	1.38333	151.262	-0.390149	19.8709	128.956	19.363	-1.94561	103.257	21.2295	-17.8474	83.7975	2.87416	-17.488	143.755	-22.4154	-50.9794	140.574	-16.652	-78.6829	138.367	-11.8959	-100.78	130.035	-34.8243	-55.7072	124.928	-28.3567	-81.3937	118.601	-22.0702	-112.369	109.3	-42.6207	-41.6205	97.8925	-38.1155	-65.8129	87.9256	-30.4953	-87.9337	92.3351	-39.2148	-20.9359	74.2272	-16.4535	-25.6117	82.9796	-0.321055	-3.22192	129.877	-54.9455	4.63775	133.679	-59.2565	33.6496	159.148	-38.5128	13.3365	
167	1.39167	154.881	0.630176	22.089	132.549	19.7815	-0.953759	102.696	18.3789	-22.1539	84.1563	3.78468	-17.554	148.326	-22.073	-52.2943	143.479	-18.4126	-75.1987	134.704	-16.196	-102.429	131.622	-34.903	-54.556	124.307	-29.5164	-78.2935	117.067	-24.5415	-110.836	109.379	-42.2968	-41.5529	101.212	-35.7032	-67.648	88.3219	-29.0023	-87.8058	89.0971	-39.1543	-22.1763	77.8101	-15.0853	-27.0501	82.7655	-0.417614	-0.973153	127.884	-56.3584	4.95743	133.342	-61.9044	35.8428	157.951	-41.8734	13.2601	
168	1.4	156.569	0.594518	23.6736	132.758	17.4773	-1.31642	107.504	17.9686	-17.8923	86.5746	3.37952	-18.8353	147.68	-23.3936	-49.4065	138.799	-21.303	-78.0139	133.478	-18.1351	-100.114	130.983	-35.3976	-53.0605	124.493	-28.8772	-77.9937	115.456	-22.7829	-107.092	108.2	-42.6496	-42.6439	99.5824	-35.7268	-69.6542	91.5805	-25.2867	-91.4987	86.931	-36.8748	-26.2872	80.2218	-11.4913	-27.4991	82.3096	2.86214	-1.93575	127.903	-58.4823	6.31164	134.016	-61.0239	32.1214	156.818	-42.0931	16.0565	
169	1.40833	156.306	-1.6104	22.8237	134.682	20.1694	-2.96698	108.761	19.9127	-19.2436	82.4085	5.2557	-22.6843	142.536	-25.6001	-54.1801	139.5	-20.3235	-75.6267	133.312	-16.976	-98.6209	130.229	-34.4151	-54.3958	123.118	-26.1272	-82.465	114.356	-19.2687	-109.455	110.461	-39.8486	-43.1404	101.701	-33.1182	-69.6569	92.5187	-23.0666	-92.3842	88.0832	-36.4678	-27.4374	77.7054	-14.5619	-30.076	87.045	4.01249	-3.15809	126.811	-59.3168	3.56758	135.348	-58.5378	36.0544	157.103	-41.0982	15.5312	
170	1.41667	154.36	-2.43799	19.18	134.247	21.829	-3.17838	105.419	20.0508	-22.8706	86.5534	4.92779	-19.5128	144.12	-24.4417	-50.799	137.204	-20.3104	-74.2504	127.729	-16.7048	-102.643	125.915	-34.8441	-54.9072	120.15	-24.0938	-83.2456	108.624	-16.5861	-109.83	112.325	-37.9759	-43.7678	102.84	-32.9926	-65.0021	90.5862	-23.806	-90.7652	91.1527	-37.1753	-26.2273	80.0089	-10.9709	-30.3017	84.1844	3.35212	-2.05473	126.091	-56.7879	3.27461	135.017	-59.8485	33.7302	156.355	-41.5908	15.8464	
171	1.425	156.584	0.0599005	19.1254	135.226	18.3889	-1.07121	106.789	16.0951	-19.9582	86.0629	3.22266	-19.8974	144.003	-24.0276	-52.3896	135.232	-20.124	-76.1411	126.311	-15.4446	-99.9542	125.762	-33.5167	-57.2553	115.68	-25.8525	-81.3938	106.24	-16.5044	-108.465	109.47	-40.2954	-41.457	102.635	-30.7313	-67.4513	88.901	-23.3447	-90.6868	91.1491	-37.1073	-27.4261	79.019	-14.5701	-31.2855	84.8919	4.81788	-3.06895	129.438	-56.0686	5.37832	133.629	-60.115	32.8068	161.472	-40.5706	14.838	
172	1.43333	155.008	-1.9783	19.9769	134.605	18.462	-1.61637	106.066	19.8309	-21.738	84.8487	0.993897	-20.7699	145.701	-22.9683	-50.709	136.874	-17.2268	-77.8847	125.737	-14.8288	-101.435	128.592	-31.9179	-55.9456	119.217	-22.6112	-82.3139	105.499	-15.5222	-105.464	110.962	-38.6195	-43.8394	101.649	-33.4707	-63.4741	92.5168	-21.3699	-87.3865	89.124	-40.2461	-22.1738	76.6849	-13.0051	-28.632	86.4293	3.4248	-4.27772	128.681	-56.4428	4.55931	135.35	-59.3823	32.8995	158.098	-42.8795	15.3932	
173	1.44167	154.888	-2.45349	22.1486	134.82	18.1464	-0.493463	107.194	20.5353	-21.3063	83.0833	2.77594	-21.4424	145.529	-21.2919	-53.779	136.502	-18.1105	-76.0064	124.477	-15.1121	-99.1658	126.329	-33.2161	-55.4398	120.374	-23.644	-80.3663	107.373	-14.2737	-107.69	111.223	-38.6751	-41.8113	103.439	-30.7276	-64.6728	90.3756	-21.5205	-88.8764	89.5669	-38.863	-22.0799	79.6402	-13.5487	-29.8344	84.9936	5.76495	-4.30141	129.226	-54.6914	7.17152	135.852	-61.3155	35.2183	161.69	-38.9552	13.4447	
174	1.45	156.202	-0.672917	23.7399	133.402	18.5536	-2.36325	108.87	20.7817	-17.1789	82.6913	5.48788	-20.994	146.352	-20.3673	-53.1377	140.238	-14.5975	-76.5713	129.156	-11.6779	-101.892	126.859	-34.044	-53.0612	120.626	-25.3328	-76.8652	114.158	-15.6758	-107.716	110.795	-39.7198	-41.2256	100.207	-32.1003	-67.6726	88.1369	-25.4392	-88.4931	90.4945	-36.2766	-22.9277	78.3819	-12.0531	-26.6505	86.8951	3.93685	-0.440087	130.221	-57.0369	5.59666	133.424	-61.2411	36.4475	159.405	-39.3172	16.0058	
175	1.45833	154.573	0.148324	22.7374	132.526	20.0618	-1.69292	106.429	21.7908	-19.753	86.4645	5.37612	-17.4742	146.753	-18.7016	-50.6579	143.031	-12.6061	-76.6462	137.293	-5.80305	-102.903	130.033	-32.288	-53.1676	123.09	-25.715	-82.7083	112.846	-21.1892	-106.061	109.391	-39.2593	-43.1027	101.259	-32.694	-66.173	90.3112	-25.978	-85.0169	88.3077	-34.1318	-25.354	79.6811	-8.98492	-24.951	82.2791	4.06154	1.70546	127.872	-57.932	8.16876	135.334	-57.7622	36.5233	158.529	-40.6167	13.8992	
176	1.46667	153.652	-0.330783	23.5654	132.855	19.7793	-1.33942	105.059	21.3165	-20.5955	86.1863	2.02413	-16.7366	145.813	-18.5585	-52.8073	146.671	-9.38447	-77.2376	142.335	-3.51836	-99.6181	128.112	-34.1026	-55.9544	123.43	-27.7577	-81.4792	113.989	-23.5118	-108.556	111.873	-38.1481	-44.6684	103.655	-33.8998	-62.9599	88.2822	-28.1882	-88.5759	89.2024	-35.1052	-23.8059	74.1879	-12.133	-23.2892	80.8927	1.18891	2.38222	126.431	-55.2783	3.47583	135.234	-59.6068	36.3362	157.074	-37.6001	14.2383	
177	1.475	154.687	2.28198	24.8926	132.073	23.2425	-0.121988	104.972	16.9086	-18.5171	81.6525	4.1139	-19.036	150.42	-14.1765	-52.6325	144.536	-8.61161	-78.8354	142.285	-2.04069	-99.9058	128.917	-34.9042	-51.4879	125.579	-27.1316	-82.2337	116.4	-23.982	-111.979	108.086	-41.5602	-41.2399	100.457	-36.9836	-63.3913	89.34	-29.3481	-87.1194	87.243	-37.7742	-21.0648	77.1533	-13.3823	-26.6996	86.9102	1.49576	0.135934	130.183	-55.2692	8.23965	135.175	-60.2998	36.8571	160.29	-37.5581	15.7405	
178	1.48333	153.764	0.638599	25.0154	130.524	21.6002	-2.68486	103.799	21.9456	-20.1687	82.3436	1.86704	-18.631	150.081	-13.7261	-49.2824	146.673	-7.76093	-76.0714	143.045	0.108516	-101.463	129.895	-33.3755	-52.1063	125.839	-28.5948	-78.6778	116.114	-23.9566	-112.5	110.794	-38.9901	-44.167	99.0389	-37.7207	-63.1614	87.9828	-30.3896	-85.9339	91.518	-37.5625	-21.4724	77.1647	-14.0881	-27.8326	81.6513	1.66222	-2.13886	129.473	-52.7974	6.01164	134.778	-59.9668	33.9547	156.495	-36.896	14.3678	
179	1.49167	153.937	1.84282	20.9805	131.756	20.7648	-0.867418	106.59	19.7545	-15.7874	85.6599	1.28302	-15.7956	147.026	-15.8244	-54.8856	147.912	-4.67562	-77.558	139.911	-1.80997	-98.3412	130.008	-34.348	-52.1	122.231	-30.9391	-77.6492	115.033	-25.9065	-108.204	107.999	-41.6299	-42.5477	101.244	-34.9734	-66.1709	87.7121	-28.7242	-89.2556	90.2801	-35.3542	-25.3003	77.243	-14.6984	-28.5716	82.039	2.04584	-1.17133	128.091	-54.5381	6.69778	134.48	-59.2067	35.8886	158.742	-36.8861	14.0474	
